<?xml version="1.0" encoding="UTF-8" standalone="no"?>
<svg
   xmlns:dc="http://purl.org/dc/elements/1.1/"
   xmlns:cc="http://creativecommons.org/ns#"
   xmlns:rdf="http://www.w3.org/1999/02/22-rdf-syntax-ns#"
   xmlns:svg="http://www.w3.org/2000/svg"
   xmlns="http://www.w3.org/2000/svg"
   xmlns:sodipodi="http://sodipodi.sourceforge.net/DTD/sodipodi-0.dtd"
   xmlns:inkscape="http://www.inkscape.org/namespaces/inkscape"
   version="1.1"
   id="svg2"
   xml:space="preserve"
   width="707.96002"
   height="666.65332"
   viewBox="0 0 707.96002 666.65332"
   sodipodi:docname="github.svg"
   inkscape:version="0.92.5 (2060ec1f9f, 2020-04-08)"><metadata
     id="metadata8"><rdf:RDF><cc:Work
         rdf:about=""><dc:format>image/svg+xml</dc:format><dc:type
           rdf:resource="http://purl.org/dc/dcmitype/StillImage" /></cc:Work></rdf:RDF></metadata><defs
     id="defs6" /><sodipodi:namedview
     pagecolor="#ffffff"
     bordercolor="#666666"
     borderopacity="1"
     objecttolerance="10"
     gridtolerance="10"
     guidetolerance="10"
     inkscape:pageopacity="0"
     inkscape:pageshadow="2"
     inkscape:window-width="1920"
     inkscape:window-height="1200"
     id="namedview4"
     showgrid="false"
     inkscape:zoom="1.4160283"
     inkscape:cx="281.27565"
     inkscape:cy="325.20826"
     inkscape:window-x="1920"
     inkscape:window-y="0"
     inkscape:window-maximized="0"
     inkscape:current-layer="g12" /><g
     id="g10"
     inkscape:groupmode="layer"
     inkscape:label="ink_ext_XXXXXX"
     transform="matrix(1.3333333,0,0,-1.3333333,0,666.65333)"><g
       id="g12"
       transform="matrix(0.1,0,0,0.1,22.774968,-39.194132)"><path
         d="m 2426.9147,4862.1702 c -1115.3902,0 -2019.95553,-904.4408 -2019.95553,-2020.2031 0,-892.4113 578.77768,-1649.6464 1381.52673,-1916.8986 101.0722,-18.4782 137.9046,43.90129 137.9046,97.4757 0,47.9938 -1.7362,174.9851 -2.7283,343.5214 -561.9116,-122.0307 -680.4699,270.8485 -680.4699,270.8485 -91.8951,233.3962 -224.3435,295.5276 -224.3435,295.5276 -183.41805,125.2551 13.8896,122.7748 13.8896,122.7748 202.765,-14.2617 309.4178,-208.221 309.4178,-208.221 180.1937,-308.6732 472.8689,-219.5065 587.9547,-167.7922 18.3543,130.4636 70.5645,219.5064 128.2315,269.9804 -448.562,51.0942 -920.1907,224.343 -920.1907,998.4441 0,220.6226 78.7494,400.8163 207.973,542.0693 -20.8345,51.0941 -90.1589,256.4628 19.8424,534.6283 0,0 169.5284,54.3185 555.4628,-206.9809 161.0954,44.7694 333.9722,67.0921 505.7329,67.9602 171.6367,-0.8681 344.3894,-23.1908 505.7328,-67.9602 385.6864,261.2994 554.9668,206.9809 554.9668,206.9809 110.2492,-278.1655 40.9249,-483.5342 20.2144,-534.6283 129.4716,-141.253 207.601,-321.4467 207.601,-542.0693 0,-776.0853 -472.3728,-946.8539 -922.2989,-996.8319 72.4246,-62.3795 137.0365,-185.6503 137.0365,-374.153 0,-269.9805 -2.4803,-487.8747 -2.4803,-554.0987 0,-54.07041 36.4604,-116.946 138.8966,-97.2276 802.1286,267.7482 1380.4101,1024.3632 1380.4101,1916.6505 0,1115.7623 -904.5648,2020.2031 -2020.3271,2020.2031"
         style="fill-opacity: 1; fill-rule: evenodd; stroke: none; stroke-width: 12.40149212;"
         id="path16"
         inkscape:connector-curvature="0" /></g></g></svg>
